<svg id="Warstwa_3" data-name="Warstwa 3" xmlns="http://www.w3.org/2000/svg" viewBox="0 0 2047 2047"><defs><style>.cls-1{fill:#fff;}</style></defs><ellipse class="cls-1" cx="1159.68" cy="596.58" rx="55.53" ry="58.93"/><ellipse class="cls-1" cx="887.32" cy="596.58" rx="55.53" ry="58.93"/><path class="cls-1" d="M1438.93,942.37a1290.51,1290.51,0,0,0-99.27-232.44,192.22,192.22,0,0,0,61-59.47c31.73-49.53,30.57-99.91,29.7-123.66a243.17,243.17,0,0,0-17.2-81.39c-6.61-16.48-16-39.26-37.52-61.82a165.54,165.54,0,0,0-35.43-28.18l-.72-1.24V190.54l-84.84,98.9c-25.95-6.66-63.93-11.49-125.21-15.42-25.87-1.66-62.89-3.52-105.91-4.38h0c-43,.86-80,2.72-105.91,4.38-61.28,3.93-99.26,8.76-125.21,15.42l-84.84-98.9V354.17l-.72,1.24a165.54,165.54,0,0,0-35.43,28.18c-21.52,22.56-30.91,45.34-37.52,61.82a243.17,243.17,0,0,0-17.2,81.39c-.87,23.75-2,74.13,29.7,123.66a192.22,192.22,0,0,0,61,59.47,1290.51,1290.51,0,0,0-99.27,232.44C572.6,1055,523.81,1209.8,558.83,1398.63c20.66,111.37,62.64,192.43,78.16,220.7,41.29,75.16,85,122.71,95.36,133.82a620.77,620.77,0,0,0,125.84,103.31l71.91-199.57c30.93,29.22,62.47,58.44,93.4,87.65,30.93-29.21,62.47-58.43,93.4-87.65l71.91,199.57a620.77,620.77,0,0,0,125.84-103.31c10.39-11.11,54.07-58.66,95.36-133.82,15.52-28.27,57.5-109.33,78.16-220.7C1523.19,1209.8,1474.4,1055,1438.93,942.37Zm-615.3-247.3C745.4,695.07,682,627.44,682,544S745.4,393,823.63,393,965.28,460.6,965.28,544,901.86,695.07,823.63,695.07ZM1023.5,837h0L942.85,681l80.65-67.83h0L1104.15,681Zm199.87-141.91c-78.23,0-141.65-67.63-141.65-151.05s63.42-151,141.65-151S1365,460.6,1365,544,1301.6,695.07,1223.37,695.07Z"/></svg>